<svg width="521" height="456" viewBox="0 0 521 456" fill="none" xmlns="http://www.w3.org/2000/svg">
<path d="M520.246 162.577H431.904L339.094 7.89068C334.49 0.206734 324.503 -2.30204 316.788 2.31818C309.087 6.9384 306.595 16.9242 311.215 24.6246L393.986 162.577H126.261L209.032 24.6235C213.652 16.9231 211.16 6.9373 203.459 2.31708C195.727 -2.30314 185.773 0.205639 181.153 7.88959L88.3424 162.576H0V195.091H35.2859L76.5888 415.411C80.9069 438.481 101.07 455.215 124.537 455.215H395.71C419.176 455.215 439.339 438.481 443.642 415.428L484.959 195.091H520.247C520.246 195.091 520.246 162.577 520.246 162.577ZM411.681 409.443C410.253 417.127 403.536 422.7 395.709 422.7H124.537C116.709 422.7 109.994 417.128 108.549 409.427L68.3576 195.091H451.889L411.681 409.443Z" fill="black"/>
<path d="M230.5 312.828C202.1 294.428 126.333 312.161 92 323.328C96 343.661 104.8 388.628 108 405.828C111.2 423.028 123.833 423.328 130 422.828H392.5C404.5 422.828 409.833 416.161 411 412.828L427.5 325.328C392 312.828 383 349.828 326 358.828C269 367.828 266 335.828 230.5 312.828Z" fill="#3FA3FF"/>
</svg>
