<svg width="154" height="66" viewBox="0 0 154 66" fill="none" xmlns="http://www.w3.org/2000/svg">
<path d="M9 11.0111C9 9.46742 9 8.20672 9 6.97175H11.2573V9.39023C11.6781 8.54028 12.3148 7.83205 13.0954 7.34557C13.8761 6.85909 14.7695 6.61373 15.6748 6.63727C16.5537 6.62446 17.4141 6.90609 18.1332 7.44199C18.8523 7.97789 19.3934 8.74071 19.6796 9.62177C20.074 8.86994 20.6113 8.21291 21.2573 7.69215C22.1471 6.97115 23.2446 6.59846 24.364 6.63727C26.233 6.63727 29 7.92374 29 13.1209L29.2913 43.4803L26.6214 21.9199V13.4553C26.6214 10.5994 25.6263 8.84995 23.5632 8.84995C22.8679 8.89128 22.2019 9.16128 21.6582 9.6224C21.1144 10.0835 20.7198 10.7128 20.5292 11.4228C20.3984 11.864 20.3328 12.324 20.3349 12.7864V22.0229H17.9078V13.0694C17.9078 10.7024 16.9127 8.95281 14.9467 8.95281C14.2168 8.99721 13.5186 9.28484 12.952 9.77457C12.3854 10.2643 11.9791 10.9312 11.7912 11.6801C11.6443 12.1089 11.5705 12.5618 11.5728 13.0179V22.0229L9.87375 43.4803L9 11.0111Z" fill="black"/>
<path d="M45.0919 17.7533C45.0919 19.297 43.7569 42.2209 43.854 43.4816L42.9317 21.9213L42.786 19.4771C42.3101 20.3354 41.6281 21.0447 40.8095 21.5328C39.9909 22.0208 39.065 22.2703 38.1259 22.2557C35.9171 22.2557 33.2715 20.9693 33.2715 15.7207V6.97309H35.8443V15.1804C35.8443 18.0106 36.6452 19.9144 38.9753 19.9144C39.719 19.8927 40.4395 19.6363 41.0449 19.178C41.6502 18.7196 42.1129 18.0802 42.3735 17.3416C42.5266 16.8968 42.6006 16.4257 42.5918 15.9523V6.79297H45.1646L45.0919 17.7533Z" fill="black"/>
<path d="M49.0018 19.1416C50.0167 19.8111 51.1808 20.1839 52.3757 20.2221C54.2446 20.2221 55.1184 19.2187 55.1184 17.9838C55.1184 16.7488 54.3902 15.9769 52.497 15.2566C50.0698 14.2789 48.7592 12.8124 48.7592 11.0114C48.785 10.378 48.9339 9.75713 49.1966 9.1876C49.4594 8.61808 49.8302 8.11218 50.2859 7.7016C50.7416 7.29101 51.2724 6.98457 51.845 6.80148C52.4176 6.61839 53.0197 6.56257 53.6136 6.63754C54.8263 6.62527 56.0217 6.9443 57.0844 7.5638L56.4533 9.54485C55.5882 8.96894 54.5865 8.66557 53.565 8.6701C52.0601 8.6701 51.1378 9.59634 51.1378 10.7027C51.1378 11.809 51.9872 12.5036 53.8076 13.2755C56.2348 14.2532 57.5213 15.5396 57.5213 17.778C57.5213 20.0163 55.5796 22.2547 52.23 22.2547C50.7009 22.2547 48.6377 38.3606 48.6377 43.5063L49.0018 19.1416Z" fill="black"/>
<path d="M63.7351 2.7783C63.7462 3.00546 63.7113 3.2325 63.6329 3.4442C63.5544 3.65591 63.4342 3.84737 63.2801 4.00576C63.1261 4.16414 62.9419 4.28581 62.7399 4.36254C62.5379 4.43927 62.3228 4.46928 62.1089 4.45063C61.9019 4.45423 61.6964 4.41329 61.5048 4.33019C61.3132 4.24709 61.1395 4.12357 60.9943 3.9672C60.849 3.81084 60.7352 3.62486 60.6598 3.42049C60.5843 3.21613 60.5489 2.99764 60.5555 2.7783C60.5522 2.55435 60.5914 2.33201 60.6707 2.12442C60.7501 1.91683 60.868 1.72823 61.0174 1.56985C61.1668 1.41148 61.3446 1.28658 61.5405 1.20247C61.7363 1.11837 61.9461 1.07675 62.1574 1.08022C62.3685 1.07285 62.5788 1.11194 62.775 1.19501C62.9711 1.27808 63.1489 1.40332 63.2972 1.56287C63.4454 1.72241 63.5609 1.91279 63.6363 2.12198C63.7116 2.33117 63.7453 2.55464 63.7351 2.7783ZM60.8467 21.9202V6.97204H63.4195L63.2739 43.4806L60.8467 21.9202Z" fill="black"/>
<path d="M77.8357 43.4813C77.1561 43.8415 75.5784 22.2297 73.6852 22.2297C72.728 22.2815 71.7716 22.1151 70.8803 21.7415C69.9891 21.368 69.1838 20.7961 68.5189 20.0645C67.854 19.3329 67.3449 18.4585 67.0261 17.5005C66.7072 16.5425 66.5861 15.5231 66.6707 14.5112C66.6433 13.4538 66.8211 12.4019 67.1932 11.4205C67.5653 10.4391 68.1238 9.54921 68.8339 8.80614C69.544 8.06306 70.3907 7.48268 71.3212 7.10091C72.2518 6.71914 73.2465 6.54415 74.2435 6.58686C75.4629 6.57621 76.6705 6.83922 77.7871 7.35868L77.2046 9.46842C76.2971 8.94893 75.2739 8.69997 74.2435 8.74803C73.563 8.74442 72.8894 8.89247 72.2664 9.18262C71.6434 9.47278 71.0849 9.89856 70.6272 10.4323C70.1694 10.966 69.8227 11.5958 69.6094 12.2807C69.3961 12.9657 69.3211 13.6906 69.3891 14.4083C69.3319 15.1199 69.4149 15.8363 69.6331 16.512C69.8513 17.1877 70.1997 17.8078 70.6564 18.333C71.113 18.8581 71.6678 19.2768 72.2853 19.5623C72.9029 19.8478 73.5698 19.9939 74.2435 19.9913C75.3347 19.9964 76.4131 19.7414 77.3988 19.2452L77.8357 43.4813Z" fill="black"/>
<path d="M86.569 19.1419C87.5811 19.8521 88.7548 20.2608 89.9671 20.3254C91.836 20.3254 92.7098 19.322 92.7098 18.087C92.7098 16.8521 91.9816 16.0802 90.0884 15.3598C87.6612 14.3821 86.3506 12.9156 86.3506 11.1147C86.3765 10.4813 86.5253 9.8604 86.7881 9.29087C87.0508 8.72135 87.4217 8.21545 87.8774 7.80487C88.3331 7.39428 88.8638 7.08784 89.4364 6.90475C90.009 6.72166 90.6111 6.66584 91.205 6.74081C92.4178 6.72854 93.6131 7.04749 94.6758 7.66699L94.0447 9.64813C93.1796 9.07221 92.1779 8.76884 91.1564 8.77337C89.6515 8.77337 88.7292 9.69953 88.7292 10.8059C88.7292 11.9122 89.5788 12.6068 91.3992 13.3787C93.8264 14.3564 95.1127 15.6428 95.1127 17.8812C95.1127 20.1195 93.171 22.3579 89.8215 22.3579C88.2923 22.3579 87.3943 41.0367 87.3943 43.6095L86.569 19.1419Z" fill="black"/>
<path d="M98.4414 0H101.014V9.31365C101.449 8.50885 102.088 7.84932 102.859 7.40978C103.653 6.91247 104.558 6.64617 105.48 6.63788C107.374 6.63788 110.335 7.87287 110.335 13.0185L109.388 43.4809L107.883 21.9205V13.3273C107.883 10.9345 107.034 8.90199 104.631 8.90199C103.862 8.9157 103.117 9.18337 102.499 9.66768C101.881 10.152 101.422 10.8287 101.184 11.6034C101.046 12.0246 100.988 12.4706 101.014 12.9156V21.9205L99.6793 43.4809L98.4414 0Z" fill="black"/>
<path d="M127.375 14.3316C127.457 15.3527 127.335 16.3806 127.018 17.3486C126.701 18.3166 126.195 19.2031 125.533 19.9504C124.872 20.6977 124.07 21.2892 123.178 21.6864C122.287 22.0836 121.327 22.2776 120.36 22.2559C119.423 22.2705 118.494 22.0765 117.632 21.6864C116.77 21.2964 115.995 20.719 115.357 19.9916C114.718 19.2641 114.231 18.4028 113.927 17.4633C113.622 16.5238 113.507 15.527 113.589 14.5374C113.503 13.5176 113.621 12.4902 113.936 11.5222C114.25 10.5542 114.754 9.66732 115.413 8.91952C116.073 8.17173 116.874 7.57977 117.764 7.18234C118.654 6.78491 119.613 6.59098 120.579 6.6131C121.519 6.59082 122.453 6.77935 123.32 7.1664C124.186 7.55345 124.966 8.13024 125.608 8.85899C126.249 9.58773 126.739 10.452 127.043 11.3951C127.348 12.3382 127.461 13.3389 127.375 14.3316ZM116.186 14.486C116.186 17.7535 117.958 20.2233 120.458 20.2233C122.958 20.2233 124.754 17.7792 124.754 14.4088C124.754 11.8359 123.54 8.67133 120.53 8.67133C117.521 8.67133 116.186 11.6301 116.186 14.486Z" fill="black"/>
<path d="M130.603 11.8603C130.603 9.93063 130.603 8.38695 130.603 6.97189H132.908L133.03 9.54472C133.536 8.62467 134.268 7.86801 135.149 7.35584C136.03 6.84366 137.026 6.59526 138.03 6.63741C141.452 6.63741 144.001 9.69911 144.001 14.2273C144.001 19.6045 140.918 22.2545 137.617 22.2545C136.764 22.2921 135.917 22.0964 135.156 21.6864C134.395 21.2764 133.746 20.6657 133.273 19.9133V28.0434L131.379 43.4804L130.603 11.8603ZM133.03 15.8225C133.044 16.2025 133.084 16.5808 133.151 16.9545C133.368 17.8633 133.866 18.6689 134.566 19.2425C135.265 19.8161 136.126 20.1248 137.01 20.1191C139.705 20.1191 141.282 17.7778 141.282 14.3559C141.282 11.3714 139.802 8.79858 137.083 8.79858C136.178 8.82652 135.308 9.17294 134.609 9.78318C133.91 10.3934 133.423 11.2328 133.224 12.169C133.111 12.5263 133.045 12.8988 133.03 13.2754V15.8225Z" fill="black"/>
<path d="M13.041 53.126L10.035 62H9.72C9.654 62 9.606 61.958 9.576 61.874L6.903 54.035C6.861 53.915 6.825 53.792 6.795 53.666C6.765 53.792 6.729 53.915 6.687 54.035L3.978 61.874C3.948 61.958 3.903 62 3.843 62H3.546L0.531 53.126H0.864C0.93 53.126 0.981 53.144 1.017 53.18C1.053 53.216 1.077 53.252 1.089 53.288L3.618 60.965C3.648 61.061 3.672 61.154 3.69 61.244C3.714 61.328 3.735 61.415 3.753 61.505C3.777 61.415 3.801 61.328 3.825 61.244C3.855 61.154 3.885 61.061 3.915 60.965L6.561 53.207C6.591 53.123 6.642 53.081 6.714 53.081H6.885C6.963 53.081 7.017 53.123 7.047 53.207L9.666 60.965C9.696 61.061 9.723 61.154 9.747 61.244C9.777 61.334 9.801 61.424 9.819 61.514C9.843 61.424 9.867 61.337 9.891 61.253C9.915 61.163 9.942 61.067 9.972 60.965L12.501 53.288C12.519 53.24 12.546 53.201 12.582 53.171C12.624 53.141 12.669 53.126 12.717 53.126H13.041ZM21.4474 56.708C21.4474 56.174 21.3694 55.7 21.2134 55.286C21.0634 54.866 20.8534 54.512 20.5834 54.224C20.3194 53.936 20.0044 53.717 19.6384 53.567C19.2724 53.417 18.8764 53.342 18.4504 53.342C17.9464 53.342 17.4934 53.423 17.0914 53.585C16.6954 53.741 16.3534 53.966 16.0654 54.26C15.7774 54.554 15.5434 54.908 15.3634 55.322C15.1894 55.736 15.0754 56.198 15.0214 56.708H21.4474ZM21.6454 60.911C21.5254 61.061 21.3574 61.208 21.1414 61.352C20.9254 61.496 20.6764 61.625 20.3944 61.739C20.1184 61.847 19.8154 61.934 19.4854 62C19.1614 62.072 18.8284 62.108 18.4864 62.108C17.8804 62.108 17.3314 62.003 16.8394 61.793C16.3534 61.577 15.9364 61.268 15.5884 60.866C15.2464 60.464 14.9824 59.972 14.7964 59.39C14.6104 58.802 14.5174 58.133 14.5174 57.383C14.5174 56.735 14.6044 56.144 14.7784 55.61C14.9584 55.07 15.2164 54.605 15.5524 54.215C15.8884 53.825 16.2994 53.522 16.7854 53.306C17.2714 53.09 17.8234 52.982 18.4414 52.982C18.9214 52.982 19.3684 53.066 19.7824 53.234C20.2024 53.402 20.5684 53.651 20.8804 53.981C21.1924 54.305 21.4354 54.707 21.6094 55.187C21.7894 55.667 21.8794 56.216 21.8794 56.834C21.8794 56.96 21.8254 57.023 21.7174 57.023H14.9944C14.9884 57.083 14.9854 57.143 14.9854 57.203C14.9854 57.257 14.9854 57.317 14.9854 57.383C14.9854 58.091 15.0694 58.715 15.2374 59.255C15.4054 59.795 15.6424 60.248 15.9484 60.614C16.2544 60.98 16.6234 61.259 17.0554 61.451C17.4934 61.637 17.9794 61.73 18.5134 61.73C18.9874 61.73 19.3984 61.679 19.7464 61.577C20.0944 61.469 20.3854 61.352 20.6194 61.226C20.8534 61.1 21.0334 60.986 21.1594 60.884C21.2914 60.776 21.3754 60.722 21.4114 60.722C21.4594 60.722 21.4984 60.74 21.5284 60.776L21.6454 60.911ZM34.1262 54.035C34.0962 54.089 34.0512 54.116 33.9912 54.116C33.9372 54.116 33.8592 54.077 33.7572 53.999C33.6612 53.915 33.5262 53.828 33.3522 53.738C33.1782 53.642 32.9592 53.555 32.6952 53.477C32.4372 53.393 32.1162 53.351 31.7322 53.351C31.3782 53.351 31.0542 53.405 30.7602 53.513C30.4722 53.615 30.2232 53.753 30.0132 53.927C29.8032 54.101 29.6412 54.305 29.5272 54.539C29.4132 54.773 29.3562 55.016 29.3562 55.268C29.3562 55.568 29.4282 55.82 29.5722 56.024C29.7222 56.228 29.9172 56.402 30.1572 56.546C30.3972 56.684 30.6702 56.804 30.9762 56.906C31.2822 57.002 31.5942 57.101 31.9122 57.203C32.2302 57.299 32.5422 57.404 32.8482 57.518C33.1542 57.632 33.4272 57.773 33.6672 57.941C33.9072 58.109 34.0992 58.316 34.2432 58.562C34.3932 58.808 34.4682 59.111 34.4682 59.471C34.4682 59.843 34.4022 60.191 34.2702 60.515C34.1382 60.839 33.9432 61.124 33.6852 61.37C33.4332 61.61 33.1212 61.799 32.7492 61.937C32.3832 62.075 31.9632 62.144 31.4892 62.144C31.1712 62.144 30.8832 62.117 30.6252 62.063C30.3672 62.015 30.1272 61.946 29.9052 61.856C29.6832 61.76 29.4762 61.646 29.2842 61.514C29.0922 61.382 28.9062 61.235 28.7262 61.073L28.8432 60.92C28.8672 60.89 28.8882 60.869 28.9062 60.857C28.9302 60.839 28.9662 60.83 29.0142 60.83C29.0742 60.83 29.1582 60.881 29.2662 60.983C29.3802 61.079 29.5302 61.187 29.7162 61.307C29.9082 61.427 30.1482 61.538 30.4362 61.64C30.7242 61.736 31.0782 61.784 31.4982 61.784C31.9122 61.784 32.2752 61.727 32.5872 61.613C32.9052 61.493 33.1692 61.331 33.3792 61.127C33.5952 60.923 33.7572 60.686 33.8652 60.416C33.9732 60.14 34.0272 59.849 34.0272 59.543C34.0272 59.219 33.9522 58.949 33.8022 58.733C33.6582 58.517 33.4662 58.337 33.2262 58.193C32.9862 58.043 32.7132 57.917 32.4072 57.815C32.1012 57.713 31.7892 57.614 31.4712 57.518C31.1532 57.422 30.8412 57.32 30.5352 57.212C30.2292 57.098 29.9562 56.96 29.7162 56.798C29.4762 56.63 29.2812 56.426 29.1312 56.186C28.9872 55.946 28.9152 55.646 28.9152 55.286C28.9152 54.986 28.9812 54.698 29.1132 54.422C29.2512 54.14 29.4432 53.894 29.6892 53.684C29.9352 53.468 30.2292 53.297 30.5712 53.171C30.9192 53.045 31.3062 52.982 31.7322 52.982C32.2482 52.982 32.7042 53.054 33.1002 53.198C33.4962 53.342 33.8712 53.57 34.2252 53.882L34.1262 54.035ZM43.3673 56.708C43.3673 56.174 43.2893 55.7 43.1333 55.286C42.9833 54.866 42.7733 54.512 42.5033 54.224C42.2393 53.936 41.9243 53.717 41.5583 53.567C41.1923 53.417 40.7963 53.342 40.3703 53.342C39.8663 53.342 39.4133 53.423 39.0113 53.585C38.6153 53.741 38.2733 53.966 37.9853 54.26C37.6973 54.554 37.4633 54.908 37.2833 55.322C37.1093 55.736 36.9953 56.198 36.9413 56.708H43.3673ZM43.5653 60.911C43.4453 61.061 43.2773 61.208 43.0613 61.352C42.8453 61.496 42.5963 61.625 42.3143 61.739C42.0383 61.847 41.7353 61.934 41.4053 62C41.0813 62.072 40.7483 62.108 40.4063 62.108C39.8003 62.108 39.2513 62.003 38.7593 61.793C38.2733 61.577 37.8563 61.268 37.5083 60.866C37.1663 60.464 36.9023 59.972 36.7163 59.39C36.5303 58.802 36.4373 58.133 36.4373 57.383C36.4373 56.735 36.5243 56.144 36.6983 55.61C36.8783 55.07 37.1363 54.605 37.4723 54.215C37.8083 53.825 38.2193 53.522 38.7053 53.306C39.1913 53.09 39.7433 52.982 40.3613 52.982C40.8413 52.982 41.2883 53.066 41.7023 53.234C42.1223 53.402 42.4883 53.651 42.8003 53.981C43.1123 54.305 43.3553 54.707 43.5293 55.187C43.7093 55.667 43.7993 56.216 43.7993 56.834C43.7993 56.96 43.7453 57.023 43.6373 57.023H36.9143C36.9083 57.083 36.9053 57.143 36.9053 57.203C36.9053 57.257 36.9053 57.317 36.9053 57.383C36.9053 58.091 36.9893 58.715 37.1573 59.255C37.3253 59.795 37.5623 60.248 37.8683 60.614C38.1743 60.98 38.5433 61.259 38.9753 61.451C39.4133 61.637 39.8993 61.73 40.4333 61.73C40.9073 61.73 41.3183 61.679 41.6663 61.577C42.0143 61.469 42.3053 61.352 42.5393 61.226C42.7733 61.1 42.9533 60.986 43.0793 60.884C43.2113 60.776 43.2953 60.722 43.3313 60.722C43.3793 60.722 43.4183 60.74 43.4483 60.776L43.5653 60.911ZM46.8698 48.986V62H46.4018V48.986H46.8698ZM50.7018 48.986V62H50.2338V48.986H50.7018ZM65.4307 53.126L61.6147 62H61.2187L57.4027 53.126H57.7537C57.8137 53.126 57.8617 53.144 57.8977 53.18C57.9337 53.216 57.9577 53.252 57.9697 53.288L61.2637 60.965C61.2997 61.049 61.3297 61.136 61.3537 61.226C61.3777 61.31 61.3987 61.394 61.4167 61.478C61.4407 61.394 61.4647 61.31 61.4887 61.226C61.5127 61.136 61.5427 61.049 61.5787 60.965L64.8727 53.288C64.8967 53.24 64.9267 53.201 64.9627 53.171C64.9987 53.141 65.0437 53.126 65.0977 53.126H65.4307ZM74.3522 53.126L69.1772 64.979C69.1472 65.039 69.1112 65.093 69.0692 65.141C69.0272 65.189 68.9672 65.213 68.8892 65.213H68.5742L70.1042 61.784L66.3062 53.126H66.6662C66.7322 53.126 66.7832 53.144 66.8192 53.18C66.8612 53.216 66.8882 53.252 66.9002 53.288L70.2122 60.884C70.2722 61.016 70.3172 61.154 70.3472 61.298C70.3892 61.172 70.4402 61.034 70.5002 60.884L73.7942 53.288C73.8182 53.24 73.8482 53.201 73.8842 53.171C73.9262 53.141 73.9712 53.126 74.0192 53.126H74.3522ZM76.8028 54.845C77.2168 54.275 77.7088 53.822 78.2788 53.486C78.8548 53.15 79.4818 52.982 80.1598 52.982C80.6518 52.982 81.0808 53.06 81.4468 53.216C81.8188 53.366 82.1248 53.585 82.3648 53.873C82.6108 54.155 82.7938 54.503 82.9138 54.917C83.0398 55.331 83.1028 55.799 83.1028 56.321V62H82.6258V56.321C82.6258 55.859 82.5748 55.445 82.4728 55.079C82.3708 54.713 82.2118 54.404 81.9958 54.152C81.7858 53.894 81.5218 53.699 81.2038 53.567C80.8858 53.429 80.5108 53.36 80.0788 53.36C79.4308 53.36 78.8308 53.531 78.2788 53.873C77.7328 54.209 77.2468 54.677 76.8208 55.277V62H76.3438V53.126H76.5688C76.6828 53.126 76.7428 53.186 76.7488 53.306L76.8028 54.845ZM86.7459 53.126V62H86.2779V53.126H86.7459ZM87.1329 49.922C87.1329 50.006 87.1149 50.084 87.0789 50.156C87.0429 50.228 86.9949 50.294 86.9349 50.354C86.8809 50.408 86.8149 50.453 86.7369 50.489C86.6649 50.519 86.5899 50.534 86.5119 50.534C86.3439 50.534 86.1969 50.474 86.0709 50.354C85.9509 50.228 85.8909 50.084 85.8909 49.922C85.8909 49.754 85.9509 49.61 86.0709 49.49C86.1969 49.364 86.3439 49.301 86.5119 49.301C86.5899 49.301 86.6649 49.319 86.7369 49.355C86.8149 49.385 86.8809 49.43 86.9349 49.49C86.9949 49.544 87.0429 49.61 87.0789 49.688C87.1149 49.76 87.1329 49.838 87.1329 49.922ZM90.5865 48.986V62H90.1185V48.986H90.5865ZM99.3379 55.502C99.4699 55.1 99.6259 54.743 99.8059 54.431C99.9859 54.119 100.193 53.855 100.427 53.639C100.667 53.423 100.937 53.261 101.237 53.153C101.537 53.039 101.876 52.982 102.254 52.982C102.428 52.982 102.605 52.997 102.785 53.027C102.971 53.051 103.136 53.105 103.28 53.189L103.226 53.468C103.202 53.534 103.16 53.567 103.1 53.567C103.034 53.567 102.932 53.546 102.794 53.504C102.662 53.456 102.464 53.432 102.2 53.432C101.828 53.432 101.495 53.492 101.201 53.612C100.913 53.726 100.655 53.897 100.427 54.125C100.205 54.353 100.007 54.638 99.8329 54.98C99.6589 55.322 99.4999 55.721 99.3559 56.177V62H98.8789V53.126H99.0949C99.2149 53.126 99.2779 53.192 99.2839 53.324L99.3379 55.502ZM110.955 56.708C110.955 56.174 110.877 55.7 110.721 55.286C110.571 54.866 110.361 54.512 110.091 54.224C109.827 53.936 109.512 53.717 109.146 53.567C108.78 53.417 108.384 53.342 107.958 53.342C107.454 53.342 107.001 53.423 106.599 53.585C106.203 53.741 105.861 53.966 105.573 54.26C105.285 54.554 105.051 54.908 104.871 55.322C104.697 55.736 104.583 56.198 104.529 56.708H110.955ZM111.153 60.911C111.033 61.061 110.865 61.208 110.649 61.352C110.433 61.496 110.184 61.625 109.902 61.739C109.626 61.847 109.323 61.934 108.993 62C108.669 62.072 108.336 62.108 107.994 62.108C107.388 62.108 106.839 62.003 106.347 61.793C105.861 61.577 105.444 61.268 105.096 60.866C104.754 60.464 104.49 59.972 104.304 59.39C104.118 58.802 104.025 58.133 104.025 57.383C104.025 56.735 104.112 56.144 104.286 55.61C104.466 55.07 104.724 54.605 105.06 54.215C105.396 53.825 105.807 53.522 106.293 53.306C106.779 53.09 107.331 52.982 107.949 52.982C108.429 52.982 108.876 53.066 109.29 53.234C109.71 53.402 110.076 53.651 110.388 53.981C110.7 54.305 110.943 54.707 111.117 55.187C111.297 55.667 111.387 56.216 111.387 56.834C111.387 56.96 111.333 57.023 111.225 57.023H104.502C104.496 57.083 104.493 57.143 104.493 57.203C104.493 57.257 104.493 57.317 104.493 57.383C104.493 58.091 104.577 58.715 104.745 59.255C104.913 59.795 105.15 60.248 105.456 60.614C105.762 60.98 106.131 61.259 106.563 61.451C107.001 61.637 107.487 61.73 108.021 61.73C108.495 61.73 108.906 61.679 109.254 61.577C109.602 61.469 109.893 61.352 110.127 61.226C110.361 61.1 110.541 60.986 110.667 60.884C110.799 60.776 110.883 60.722 110.919 60.722C110.967 60.722 111.006 60.74 111.036 60.776L111.153 60.911ZM119.75 54.098C119.732 54.116 119.714 54.134 119.696 54.152C119.678 54.164 119.654 54.17 119.624 54.17C119.576 54.17 119.501 54.128 119.399 54.044C119.297 53.96 119.156 53.867 118.976 53.765C118.796 53.663 118.568 53.57 118.292 53.486C118.016 53.402 117.683 53.36 117.293 53.36C116.741 53.36 116.249 53.459 115.817 53.657C115.391 53.849 115.028 54.128 114.728 54.494C114.434 54.86 114.209 55.301 114.053 55.817C113.897 56.333 113.819 56.915 113.819 57.563C113.819 58.229 113.897 58.823 114.053 59.345C114.215 59.861 114.44 60.296 114.728 60.65C115.022 61.004 115.373 61.274 115.781 61.46C116.195 61.646 116.654 61.739 117.158 61.739C117.614 61.739 117.995 61.688 118.301 61.586C118.613 61.478 118.871 61.361 119.075 61.235C119.279 61.103 119.435 60.986 119.543 60.884C119.651 60.776 119.729 60.722 119.777 60.722C119.825 60.722 119.864 60.74 119.894 60.776L120.002 60.911C119.894 61.061 119.744 61.208 119.552 61.352C119.366 61.496 119.147 61.625 118.895 61.739C118.649 61.847 118.373 61.934 118.067 62C117.767 62.072 117.446 62.108 117.104 62.108C116.534 62.108 116.018 62.006 115.556 61.802C115.094 61.598 114.698 61.301 114.368 60.911C114.044 60.521 113.792 60.044 113.612 59.48C113.432 58.916 113.342 58.277 113.342 57.563C113.342 56.879 113.429 56.255 113.603 55.691C113.783 55.127 114.041 54.647 114.377 54.251C114.713 53.849 115.124 53.537 115.61 53.315C116.096 53.093 116.651 52.982 117.275 52.982C117.827 52.982 118.319 53.072 118.751 53.252C119.183 53.426 119.555 53.657 119.867 53.945L119.75 54.098ZM125.545 52.982C126.175 52.982 126.733 53.093 127.219 53.315C127.711 53.531 128.125 53.84 128.461 54.242C128.797 54.638 129.052 55.118 129.226 55.682C129.4 56.246 129.487 56.873 129.487 57.563C129.487 58.253 129.4 58.88 129.226 59.444C129.052 60.002 128.797 60.479 128.461 60.875C128.125 61.271 127.711 61.577 127.219 61.793C126.733 62.003 126.175 62.108 125.545 62.108C124.915 62.108 124.354 62.003 123.862 61.793C123.376 61.577 122.965 61.271 122.629 60.875C122.293 60.479 122.038 60.002 121.864 59.444C121.69 58.88 121.603 58.253 121.603 57.563C121.603 56.873 121.69 56.246 121.864 55.682C122.038 55.118 122.293 54.638 122.629 54.242C122.965 53.84 123.376 53.531 123.862 53.315C124.354 53.093 124.915 52.982 125.545 52.982ZM125.545 61.73C126.121 61.73 126.625 61.631 127.057 61.433C127.489 61.235 127.849 60.953 128.137 60.587C128.431 60.221 128.65 59.783 128.794 59.273C128.938 58.763 129.01 58.193 129.01 57.563C129.01 56.933 128.938 56.36 128.794 55.844C128.65 55.328 128.431 54.887 128.137 54.521C127.849 54.149 127.489 53.864 127.057 53.666C126.625 53.462 126.121 53.36 125.545 53.36C124.969 53.36 124.465 53.462 124.033 53.666C123.601 53.864 123.238 54.149 122.944 54.521C122.656 54.887 122.44 55.328 122.296 55.844C122.152 56.36 122.08 56.933 122.08 57.563C122.08 58.193 122.152 58.763 122.296 59.273C122.44 59.783 122.656 60.221 122.944 60.587C123.238 60.953 123.601 61.235 124.033 61.433C124.465 61.631 124.969 61.73 125.545 61.73ZM132.578 55.502C132.71 55.1 132.866 54.743 133.046 54.431C133.226 54.119 133.433 53.855 133.667 53.639C133.907 53.423 134.177 53.261 134.477 53.153C134.777 53.039 135.116 52.982 135.494 52.982C135.668 52.982 135.845 52.997 136.025 53.027C136.211 53.051 136.376 53.105 136.52 53.189L136.466 53.468C136.442 53.534 136.4 53.567 136.34 53.567C136.274 53.567 136.172 53.546 136.034 53.504C135.902 53.456 135.704 53.432 135.44 53.432C135.068 53.432 134.735 53.492 134.441 53.612C134.153 53.726 133.895 53.897 133.667 54.125C133.445 54.353 133.247 54.638 133.073 54.98C132.899 55.322 132.74 55.721 132.596 56.177V62H132.119V53.126H132.335C132.455 53.126 132.518 53.192 132.524 53.324L132.578 55.502ZM144.006 54.917C143.634 54.347 143.223 53.945 142.773 53.711C142.323 53.471 141.807 53.351 141.225 53.351C140.643 53.351 140.136 53.459 139.704 53.675C139.272 53.885 138.912 54.179 138.624 54.557C138.336 54.935 138.12 55.382 137.976 55.898C137.832 56.414 137.76 56.975 137.76 57.581C137.76 58.991 138.024 60.035 138.552 60.713C139.086 61.391 139.863 61.73 140.883 61.73C141.507 61.73 142.083 61.559 142.611 61.217C143.145 60.875 143.61 60.401 144.006 59.795V54.917ZM144.483 48.986V62H144.267C144.147 62 144.084 61.94 144.078 61.82L144.024 60.236C143.628 60.818 143.154 61.277 142.602 61.613C142.056 61.943 141.45 62.108 140.784 62.108C139.656 62.108 138.789 61.736 138.183 60.992C137.577 60.248 137.274 59.111 137.274 57.581C137.274 56.933 137.355 56.33 137.517 55.772C137.685 55.214 137.931 54.728 138.255 54.314C138.585 53.9 138.99 53.576 139.47 53.342C139.956 53.102 140.517 52.982 141.153 52.982C141.789 52.982 142.338 53.105 142.8 53.351C143.268 53.591 143.67 53.954 144.006 54.44V48.986H144.483ZM152.374 54.035C152.344 54.089 152.299 54.116 152.239 54.116C152.185 54.116 152.107 54.077 152.005 53.999C151.909 53.915 151.774 53.828 151.6 53.738C151.426 53.642 151.207 53.555 150.943 53.477C150.685 53.393 150.364 53.351 149.98 53.351C149.626 53.351 149.302 53.405 149.008 53.513C148.72 53.615 148.471 53.753 148.261 53.927C148.051 54.101 147.889 54.305 147.775 54.539C147.661 54.773 147.604 55.016 147.604 55.268C147.604 55.568 147.676 55.82 147.82 56.024C147.97 56.228 148.165 56.402 148.405 56.546C148.645 56.684 148.918 56.804 149.224 56.906C149.53 57.002 149.842 57.101 150.16 57.203C150.478 57.299 150.79 57.404 151.096 57.518C151.402 57.632 151.675 57.773 151.915 57.941C152.155 58.109 152.347 58.316 152.491 58.562C152.641 58.808 152.716 59.111 152.716 59.471C152.716 59.843 152.65 60.191 152.518 60.515C152.386 60.839 152.191 61.124 151.933 61.37C151.681 61.61 151.369 61.799 150.997 61.937C150.631 62.075 150.211 62.144 149.737 62.144C149.419 62.144 149.131 62.117 148.873 62.063C148.615 62.015 148.375 61.946 148.153 61.856C147.931 61.76 147.724 61.646 147.532 61.514C147.34 61.382 147.154 61.235 146.974 61.073L147.091 60.92C147.115 60.89 147.136 60.869 147.154 60.857C147.178 60.839 147.214 60.83 147.262 60.83C147.322 60.83 147.406 60.881 147.514 60.983C147.628 61.079 147.778 61.187 147.964 61.307C148.156 61.427 148.396 61.538 148.684 61.64C148.972 61.736 149.326 61.784 149.746 61.784C150.16 61.784 150.523 61.727 150.835 61.613C151.153 61.493 151.417 61.331 151.627 61.127C151.843 60.923 152.005 60.686 152.113 60.416C152.221 60.14 152.275 59.849 152.275 59.543C152.275 59.219 152.2 58.949 152.05 58.733C151.906 58.517 151.714 58.337 151.474 58.193C151.234 58.043 150.961 57.917 150.655 57.815C150.349 57.713 150.037 57.614 149.719 57.518C149.401 57.422 149.089 57.32 148.783 57.212C148.477 57.098 148.204 56.96 147.964 56.798C147.724 56.63 147.529 56.426 147.379 56.186C147.235 55.946 147.163 55.646 147.163 55.286C147.163 54.986 147.229 54.698 147.361 54.422C147.499 54.14 147.691 53.894 147.937 53.684C148.183 53.468 148.477 53.297 148.819 53.171C149.167 53.045 149.554 52.982 149.98 52.982C150.496 52.982 150.952 53.054 151.348 53.198C151.744 53.342 152.119 53.57 152.473 53.882L152.374 54.035Z" fill="black"/>
</svg>
