<svg width="19" height="19" viewBox="0 0 19 19" fill="none" xmlns="http://www.w3.org/2000/svg">
<path d="M18.7796 17.7194L13.6594 12.5991C14.6512 11.374 15.2483 9.81729 15.2483 8.1218C15.2483 4.19214 12.0509 0.99469 8.12122 0.99469C4.19156 0.99469 0.994141 4.19211 0.994141 8.12176C0.994141 12.0514 4.19159 15.2489 8.12125 15.2489C9.81674 15.2489 11.3735 14.6517 12.5986 13.6599L17.7188 18.7802C17.8651 18.9265 18.0572 19 18.2492 19C18.4413 19 18.6334 18.9265 18.7796 18.7802C19.073 18.4868 19.073 18.0127 18.7796 17.7194ZM8.12125 13.7484C5.01833 13.7484 2.49459 11.2247 2.49459 8.12176C2.49459 5.01884 5.01833 2.49511 8.12125 2.49511C11.2242 2.49511 13.7479 5.01884 13.7479 8.12176C13.7479 11.2247 11.2241 13.7484 8.12125 13.7484Z" fill="white"/>
<circle cx="7.95227" cy="7.95313" r="6.13977" fill="white"/>
</svg>
