<svg width="509" height="453" viewBox="0 0 509 453" fill="none" xmlns="http://www.w3.org/2000/svg">
<path d="M254.5 453C247.254 453 240.267 450.374 234.823 445.604C214.261 427.618 194.436 410.715 176.945 395.806L176.856 395.728C125.576 352.014 81.2943 314.263 50.4837 277.075C16.0422 235.501 0 196.083 0 153.021C0 111.183 14.3413 72.5852 40.3792 44.3319C66.7278 15.7446 102.882 0 142.193 0C171.575 0 198.483 9.29215 222.167 27.6162C234.12 36.8656 244.955 48.1855 254.5 61.3896C264.049 48.1855 274.88 36.8656 286.837 27.6162C310.521 9.29215 337.429 0 366.811 0C406.118 0 442.276 15.7446 468.625 44.3319C494.663 72.5852 509 111.183 509 153.021C509 196.083 492.962 235.501 458.52 277.071C427.71 314.263 383.432 352.01 332.159 395.72C314.638 410.653 294.782 427.583 274.173 445.611C268.733 450.374 261.742 453 254.5 453V453ZM142.193 29.8266C111.309 29.8266 82.937 42.1565 62.2969 64.5478C41.35 87.277 29.8126 118.696 29.8126 153.021C29.8126 189.238 43.2684 221.629 73.4383 258.044C102.598 293.243 145.972 330.217 196.191 373.03L196.285 373.108C213.841 388.075 233.743 405.044 254.457 423.162C275.295 405.009 295.229 388.013 312.82 373.022C363.036 330.209 406.405 293.243 435.566 258.044C465.732 221.629 479.187 189.238 479.187 153.021C479.187 118.696 467.65 87.277 446.703 64.5478C426.067 42.1565 397.691 29.8266 366.811 29.8266C344.186 29.8266 323.414 37.021 305.073 51.2078C288.728 63.8563 277.342 79.8457 270.666 91.0335C267.234 96.7867 261.191 100.221 254.5 100.221C247.809 100.221 241.766 96.7867 238.334 91.0335C231.662 79.8457 220.276 63.8563 203.927 51.2078C185.586 37.021 164.814 29.8266 142.193 29.8266V29.8266Z" fill="black"/>
</svg>
