<svg width="201" height="84" viewBox="0 0 201 84" fill="none" xmlns="http://www.w3.org/2000/svg">
<path d="M1.17871 15.1955C1.17871 13.0653 1.17871 11.3256 1.17871 9.62148H4.50489V12.9588C5.12496 11.7859 6.06321 10.8086 7.21351 10.1373C8.3638 9.46601 9.6803 9.12743 11.0143 9.15993C12.3095 9.14224 13.5772 9.53087 14.6369 10.2704C15.6965 11.0099 16.4939 12.0625 16.9155 13.2783C17.4967 12.2408 18.2884 11.3342 19.2403 10.6156C20.5515 9.62065 22.1687 9.10637 23.8182 9.15993C26.5722 9.15993 30.6496 10.9351 30.6496 18.1067L31.0787 60.0002L27.1446 30.2487V18.5682C27.1446 14.6274 25.6782 12.2132 22.6381 12.2132C21.6136 12.2703 20.6323 12.6428 19.831 13.2791C19.0298 13.9155 18.4483 14.7839 18.1674 15.7635C17.9747 16.3723 17.8781 17.0071 17.8812 17.6452V30.3907H14.3046V18.0357C14.3046 14.7694 12.8384 12.3552 9.94134 12.3552C8.86582 12.4164 7.83712 12.8133 7.0022 13.4891C6.16728 14.1649 5.5686 15.0852 5.29163 16.1186C5.07526 16.7102 4.9664 17.3353 4.96986 17.9647V30.3907L2.46622 60.0002L1.17871 15.1955Z" fill="black"/>
<path d="M54.3622 24.4971C54.3622 26.6273 52.395 58.2604 52.5381 60.0001L51.179 30.2486L50.9644 26.8758C50.2631 28.0602 49.2581 29.0389 48.0519 29.7125C46.8457 30.386 45.4813 30.7302 44.0975 30.7101C40.8428 30.7101 36.9443 28.9349 36.9443 21.6923V9.62135H40.7355V20.9468C40.7355 24.8521 41.9157 27.4793 45.3492 27.4793C46.4449 27.4493 47.5068 27.0955 48.3988 26.463C49.2908 25.8306 49.9725 24.9482 50.3564 23.929C50.5821 23.3152 50.6911 22.6652 50.6782 22.0118V9.3728H54.4694L54.3622 24.4971Z" fill="black"/>
<path d="M60.1206 26.4141C61.6161 27.338 63.3314 27.8524 65.092 27.9051C67.846 27.9051 69.1336 26.5205 69.1336 24.8164C69.1336 23.1123 68.0605 22.0472 65.2708 21.0531C61.6943 19.704 59.763 17.6803 59.763 15.1951C59.8011 14.3211 60.0205 13.4643 60.4076 12.6785C60.7947 11.8926 61.3413 11.1945 62.0127 10.6279C62.6842 10.0613 63.4664 9.63846 64.3101 9.38581C65.1538 9.13315 66.041 9.05613 66.9161 9.15958C68.7032 9.14266 70.4646 9.58288 72.0306 10.4377L71.1006 13.1714C69.8259 12.3767 68.3498 11.9581 66.8445 11.9643C64.627 11.9643 63.2679 13.2425 63.2679 14.7691C63.2679 16.2957 64.5197 17.2543 67.2021 18.3194C70.7786 19.6685 72.6743 21.4437 72.6743 24.5324C72.6743 27.6212 69.8131 30.7099 64.8774 30.7099C62.6242 30.7099 59.584 52.9348 59.584 60.0354L60.1206 26.4141Z" fill="black"/>
<path d="M81.83 3.83441C81.8464 4.14787 81.795 4.46116 81.6794 4.7533C81.5637 5.04543 81.3866 5.30963 81.1596 5.52819C80.9327 5.74675 80.6612 5.91463 80.3635 6.02052C80.0658 6.1264 79.7489 6.16781 79.4338 6.14208C79.1287 6.14704 78.8259 6.09055 78.5435 5.97588C78.2612 5.8612 78.0053 5.69077 77.7913 5.47499C77.5773 5.25922 77.4095 5.00258 77.2984 4.72058C77.1873 4.43857 77.135 4.13707 77.1447 3.83441C77.1399 3.52537 77.1976 3.21856 77.3145 2.9321C77.4315 2.64565 77.6052 2.3854 77.8253 2.16685C78.0455 1.9483 78.3076 1.77596 78.5962 1.6599C78.8847 1.54384 79.1938 1.48641 79.5051 1.4912C79.8163 1.48103 80.1262 1.53497 80.4152 1.6496C80.7043 1.76423 80.9663 1.93705 81.1847 2.15721C81.4031 2.37736 81.5733 2.64008 81.6844 2.92874C81.7955 3.2174 81.845 3.52577 81.83 3.83441ZM77.5739 30.2486V9.62141H81.365L81.1504 60.0001L77.5739 30.2486Z" fill="black"/>
<path d="M102.61 60.0002C101.608 60.4973 99.2835 30.6748 96.4938 30.6748C95.0834 30.7463 93.6741 30.5166 92.3608 30.0012C91.0475 29.4857 89.8609 28.6966 88.8811 27.687C87.9014 26.6774 87.1512 25.4709 86.6814 24.1489C86.2115 22.827 86.033 21.4202 86.1577 20.0239C86.1173 18.5649 86.3793 17.1133 86.9276 15.759C87.476 14.4048 88.2989 13.1768 89.3452 12.1514C90.3916 11.126 91.6392 10.3252 93.0104 9.79835C94.3817 9.27154 95.8474 9.03007 97.3165 9.08901C99.1133 9.07431 100.893 9.43725 102.538 10.1541L101.68 13.0653C100.343 12.3485 98.8348 12.0049 97.3165 12.0712C96.3138 12.0663 95.3212 12.2706 94.4032 12.6709C93.4851 13.0713 92.6622 13.6589 91.9877 14.3954C91.3132 15.1319 90.8023 16.0009 90.488 16.9461C90.1737 17.8913 90.0631 18.8916 90.1634 19.8819C90.079 20.8639 90.2015 21.8525 90.5229 22.7849C90.8444 23.7173 91.3579 24.573 92.0307 25.2976C92.7036 26.0223 93.5211 26.6 94.4311 26.994C95.3411 27.388 96.3237 27.5896 97.3165 27.586C98.9245 27.593 100.513 27.2411 101.966 26.5564L102.61 60.0002Z" fill="black"/>
<path d="M115.486 26.4141C116.977 27.3941 118.707 27.9581 120.493 28.0472C123.247 28.0472 124.535 26.6626 124.535 24.9585C124.535 23.2543 123.462 22.1893 120.672 21.1952C117.095 19.8461 115.164 17.8224 115.164 15.3372C115.202 14.4632 115.422 13.6064 115.809 12.8205C116.196 12.0347 116.742 11.3366 117.414 10.77C118.085 10.2034 118.867 9.78055 119.711 9.5279C120.555 9.27524 121.442 9.19822 122.317 9.30167C124.104 9.28475 125.866 9.72486 127.432 10.5797L126.502 13.3135C125.227 12.5188 123.751 12.1002 122.246 12.1064C120.028 12.1064 118.669 13.3845 118.669 14.9111C118.669 16.4377 119.921 17.3963 122.603 18.4614C126.18 19.8105 128.075 21.5856 128.075 24.6744C128.075 27.7632 125.214 30.852 120.279 30.852C118.025 30.852 116.702 56.6271 116.702 60.1774L115.486 26.4141Z" fill="black"/>
<path d="M132.975 0H136.766V12.8521C137.407 11.7415 138.349 10.8314 139.484 10.2249C140.655 9.53862 141.987 9.17116 143.347 9.15972C146.136 9.15972 150.5 10.8639 150.5 17.9645L149.105 60L146.887 30.2485V18.3905C146.887 15.0887 145.636 12.284 142.095 12.284C140.963 12.3029 139.865 12.6723 138.954 13.3406C138.044 14.0089 137.366 14.9427 137.016 16.0118C136.813 16.5929 136.728 17.2084 136.766 17.8224V30.2485L134.799 60L132.975 0Z" fill="black"/>
<path d="M175.608 19.7752C175.728 21.1842 175.549 22.6026 175.082 23.9384C174.614 25.2742 173.869 26.4974 172.894 27.5286C171.919 28.5599 170.737 29.3761 169.424 29.9242C168.11 30.4723 166.696 30.74 165.271 30.71C163.891 30.7301 162.521 30.4624 161.251 29.9242C159.981 29.386 158.839 28.5892 157.898 27.5854C156.958 26.5816 156.24 25.3931 155.791 24.0967C155.342 22.8002 155.172 21.4247 155.293 20.0591C155.167 18.6519 155.341 17.2342 155.804 15.8984C156.268 14.5626 157.009 13.3388 157.981 12.3069C158.953 11.275 160.134 10.4582 161.446 9.90978C162.757 9.36136 164.17 9.09375 165.593 9.12426C166.979 9.09353 168.355 9.35369 169.632 9.88778C170.909 10.4219 172.058 11.2178 173.003 12.2234C173.949 13.229 174.67 14.4216 175.119 15.723C175.567 17.0244 175.734 18.4053 175.608 19.7752ZM159.12 19.9882C159.12 24.497 161.731 27.9053 165.414 27.9053C169.098 27.9053 171.745 24.5325 171.745 19.8817C171.745 16.3314 169.957 11.9645 165.522 11.9645C161.087 11.9645 159.12 16.0473 159.12 19.9882Z" fill="black"/>
<path d="M180.364 16.367C180.364 13.7043 180.364 11.5741 180.364 9.62146H183.762L183.941 13.1718C184.686 11.9022 185.766 10.858 187.064 10.1513C188.362 9.44451 189.829 9.10175 191.309 9.15991C196.351 9.15991 200.107 13.3848 200.107 19.6333C200.107 27.0534 195.565 30.7102 190.701 30.7102C189.444 30.762 188.195 30.492 187.074 29.9262C185.953 29.3604 184.997 28.5178 184.299 27.4794V38.6984L181.509 60.0002L180.364 16.367ZM183.941 21.8345C183.962 22.3589 184.021 22.881 184.12 23.3966C184.439 24.6507 185.173 25.7623 186.204 26.5538C187.235 27.3454 188.503 27.7713 189.806 27.7635C193.776 27.7635 196.101 24.5327 196.101 19.8108C196.101 15.6925 193.919 12.1421 189.914 12.1421C188.58 12.1807 187.297 12.6587 186.268 13.5008C185.238 14.3429 184.52 15.5011 184.227 16.793C184.06 17.286 183.964 17.8 183.941 18.3197V21.8345Z" fill="black"/>
<path d="M14.4898 70.14L11.1498 80H10.7998C10.7265 80 10.6732 79.9534 10.6398 79.86L7.66984 71.15C7.62318 71.0167 7.58318 70.88 7.54984 70.74C7.51651 70.88 7.47651 71.0167 7.42984 71.15L4.41984 79.86C4.38651 79.9534 4.33651 80 4.26984 80H3.93984L0.589844 70.14H0.959844C1.03318 70.14 1.08984 70.16 1.12984 70.2C1.16984 70.24 1.19651 70.28 1.20984 70.32L4.01984 78.85C4.05318 78.9567 4.07984 79.06 4.09984 79.16C4.12651 79.2534 4.14984 79.35 4.16984 79.45C4.19651 79.35 4.22318 79.2534 4.24984 79.16C4.28318 79.06 4.31651 78.9567 4.34984 78.85L7.28984 70.23C7.32318 70.1367 7.37984 70.09 7.45984 70.09H7.64984C7.73651 70.09 7.79651 70.1367 7.82984 70.23L10.7398 78.85C10.7732 78.9567 10.8032 79.06 10.8298 79.16C10.8632 79.26 10.8898 79.36 10.9098 79.46C10.9365 79.36 10.9632 79.2634 10.9898 79.17C11.0165 79.07 11.0465 78.9634 11.0798 78.85L13.8898 70.32C13.9098 70.2667 13.9398 70.2234 13.9798 70.19C14.0265 70.1567 14.0765 70.14 14.1298 70.14H14.4898Z" fill="black"/>
<path d="M23.8303 74.12C23.8303 73.5267 23.7436 73 23.5703 72.54C23.4036 72.0734 23.1703 71.68 22.8703 71.36C22.577 71.04 22.227 70.7967 21.8203 70.63C21.4136 70.4634 20.9736 70.38 20.5003 70.38C19.9403 70.38 19.437 70.47 18.9903 70.65C18.5503 70.8234 18.1703 71.0734 17.8503 71.4C17.5303 71.7267 17.2703 72.12 17.0703 72.58C16.877 73.04 16.7503 73.5534 16.6903 74.12H23.8303ZM24.0503 78.79C23.917 78.9567 23.7303 79.12 23.4903 79.28C23.2503 79.44 22.9736 79.5834 22.6603 79.71C22.3536 79.83 22.017 79.9267 21.6503 80C21.2903 80.08 20.9203 80.12 20.5403 80.12C19.867 80.12 19.257 80.0034 18.7103 79.77C18.1703 79.53 17.707 79.1867 17.3203 78.74C16.9403 78.2934 16.647 77.7467 16.4403 77.1C16.2336 76.4467 16.1303 75.7034 16.1303 74.87C16.1303 74.15 16.227 73.4934 16.4203 72.9C16.6203 72.3 16.907 71.7834 17.2803 71.35C17.6536 70.9167 18.1103 70.58 18.6503 70.34C19.1903 70.1 19.8036 69.98 20.4903 69.98C21.0236 69.98 21.5203 70.0734 21.9803 70.26C22.447 70.4467 22.8536 70.7234 23.2003 71.09C23.547 71.45 23.817 71.8967 24.0103 72.43C24.2103 72.9634 24.3103 73.5734 24.3103 74.26C24.3103 74.4 24.2503 74.47 24.1303 74.47H16.6603C16.6536 74.5367 16.6503 74.6034 16.6503 74.67C16.6503 74.73 16.6503 74.7967 16.6503 74.87C16.6503 75.6567 16.7436 76.35 16.9303 76.95C17.117 77.55 17.3803 78.0534 17.7203 78.46C18.0603 78.8667 18.4703 79.1767 18.9503 79.39C19.437 79.5967 19.977 79.7 20.5703 79.7C21.097 79.7 21.5536 79.6434 21.9403 79.53C22.327 79.41 22.6503 79.28 22.9103 79.14C23.1703 79 23.3703 78.8734 23.5103 78.76C23.657 78.64 23.7503 78.58 23.7903 78.58C23.8436 78.58 23.887 78.6 23.9203 78.64L24.0503 78.79Z" fill="black"/>
<path d="M37.9178 71.15C37.8845 71.21 37.8345 71.24 37.7678 71.24C37.7078 71.24 37.6211 71.1967 37.5078 71.11C37.4011 71.0167 37.2511 70.92 37.0578 70.82C36.8645 70.7134 36.6211 70.6167 36.3278 70.53C36.0411 70.4367 35.6845 70.39 35.2578 70.39C34.8645 70.39 34.5045 70.45 34.1778 70.57C33.8578 70.6834 33.5811 70.8367 33.3478 71.03C33.1145 71.2234 32.9345 71.45 32.8078 71.71C32.6811 71.97 32.6178 72.24 32.6178 72.52C32.6178 72.8534 32.6978 73.1334 32.8578 73.36C33.0245 73.5867 33.2411 73.78 33.5078 73.94C33.7745 74.0934 34.0778 74.2267 34.4178 74.34C34.7578 74.4467 35.1045 74.5567 35.4578 74.67C35.8111 74.7767 36.1578 74.8934 36.4978 75.02C36.8378 75.1467 37.1411 75.3034 37.4078 75.49C37.6745 75.6767 37.8878 75.9067 38.0478 76.18C38.2145 76.4534 38.2978 76.79 38.2978 77.19C38.2978 77.6034 38.2245 77.99 38.0778 78.35C37.9311 78.71 37.7145 79.0267 37.4278 79.3C37.1478 79.5667 36.8011 79.7767 36.3878 79.93C35.9811 80.0834 35.5145 80.16 34.9878 80.16C34.6345 80.16 34.3145 80.13 34.0278 80.07C33.7411 80.0167 33.4745 79.94 33.2278 79.84C32.9811 79.7334 32.7511 79.6067 32.5378 79.46C32.3245 79.3134 32.1178 79.15 31.9178 78.97L32.0478 78.8C32.0745 78.7667 32.0978 78.7434 32.1178 78.73C32.1445 78.71 32.1845 78.7 32.2378 78.7C32.3045 78.7 32.3978 78.7567 32.5178 78.87C32.6445 78.9767 32.8111 79.0967 33.0178 79.23C33.2311 79.3634 33.4978 79.4867 33.8178 79.6C34.1378 79.7067 34.5311 79.76 34.9978 79.76C35.4578 79.76 35.8611 79.6967 36.2078 79.57C36.5611 79.4367 36.8545 79.2567 37.0878 79.03C37.3278 78.8034 37.5078 78.54 37.6278 78.24C37.7478 77.9334 37.8078 77.61 37.8078 77.27C37.8078 76.91 37.7245 76.61 37.5578 76.37C37.3978 76.13 37.1845 75.93 36.9178 75.77C36.6511 75.6034 36.3478 75.4634 36.0078 75.35C35.6678 75.2367 35.3211 75.1267 34.9678 75.02C34.6145 74.9134 34.2678 74.8 33.9278 74.68C33.5878 74.5534 33.2845 74.4 33.0178 74.22C32.7511 74.0334 32.5345 73.8067 32.3678 73.54C32.2078 73.2734 32.1278 72.94 32.1278 72.54C32.1278 72.2067 32.2011 71.8867 32.3478 71.58C32.5011 71.2667 32.7145 70.9934 32.9878 70.76C33.2611 70.52 33.5878 70.33 33.9678 70.19C34.3545 70.05 34.7845 69.98 35.2578 69.98C35.8311 69.98 36.3378 70.06 36.7778 70.22C37.2178 70.38 37.6345 70.6334 38.0278 70.98L37.9178 71.15Z" fill="black"/>
<path d="M48.1858 74.12C48.1858 73.5267 48.0991 73 47.9258 72.54C47.7591 72.0734 47.5258 71.68 47.2258 71.36C46.9324 71.04 46.5824 70.7967 46.1758 70.63C45.7691 70.4634 45.3291 70.38 44.8558 70.38C44.2958 70.38 43.7924 70.47 43.3458 70.65C42.9058 70.8234 42.5258 71.0734 42.2058 71.4C41.8858 71.7267 41.6258 72.12 41.4258 72.58C41.2324 73.04 41.1058 73.5534 41.0458 74.12H48.1858ZM48.4058 78.79C48.2724 78.9567 48.0858 79.12 47.8458 79.28C47.6058 79.44 47.3291 79.5834 47.0158 79.71C46.7091 79.83 46.3724 79.9267 46.0058 80C45.6458 80.08 45.2758 80.12 44.8958 80.12C44.2224 80.12 43.6124 80.0034 43.0658 79.77C42.5258 79.53 42.0624 79.1867 41.6758 78.74C41.2958 78.2934 41.0024 77.7467 40.7958 77.1C40.5891 76.4467 40.4858 75.7034 40.4858 74.87C40.4858 74.15 40.5824 73.4934 40.7758 72.9C40.9758 72.3 41.2624 71.7834 41.6358 71.35C42.0091 70.9167 42.4658 70.58 43.0058 70.34C43.5458 70.1 44.1591 69.98 44.8458 69.98C45.3791 69.98 45.8758 70.0734 46.3358 70.26C46.8024 70.4467 47.2091 70.7234 47.5558 71.09C47.9024 71.45 48.1724 71.8967 48.3658 72.43C48.5658 72.9634 48.6658 73.5734 48.6658 74.26C48.6658 74.4 48.6058 74.47 48.4858 74.47H41.0158C41.0091 74.5367 41.0058 74.6034 41.0058 74.67C41.0058 74.73 41.0058 74.7967 41.0058 74.87C41.0058 75.6567 41.0991 76.35 41.2858 76.95C41.4724 77.55 41.7358 78.0534 42.0758 78.46C42.4158 78.8667 42.8258 79.1767 43.3058 79.39C43.7924 79.5967 44.3324 79.7 44.9258 79.7C45.4524 79.7 45.9091 79.6434 46.2958 79.53C46.6824 79.41 47.0058 79.28 47.2658 79.14C47.5258 79 47.7258 78.8734 47.8658 78.76C48.0124 78.64 48.1058 78.58 48.1458 78.58C48.1991 78.58 48.2425 78.6 48.2758 78.64L48.4058 78.79Z" fill="black"/>
<path d="M52.0773 65.54V80H51.5573V65.54H52.0773Z" fill="black"/>
<path d="M56.3352 65.54V80H55.8152V65.54H56.3352Z" fill="black"/>
<path d="M72.7006 70.14L68.4606 80H68.0206L63.7806 70.14H64.1706C64.2373 70.14 64.2906 70.16 64.3306 70.2C64.3706 70.24 64.3973 70.28 64.4106 70.32L68.0706 78.85C68.1106 78.9434 68.144 79.04 68.1706 79.14C68.1973 79.2334 68.2206 79.3267 68.2406 79.42C68.2673 79.3267 68.294 79.2334 68.3206 79.14C68.3473 79.04 68.3806 78.9434 68.4206 78.85L72.0806 70.32C72.1073 70.2667 72.1406 70.2234 72.1806 70.19C72.2206 70.1567 72.2706 70.14 72.3306 70.14H72.7006Z" fill="black"/>
<path d="M82.6134 70.14L76.8634 83.31C76.8301 83.3767 76.7901 83.4367 76.7434 83.49C76.6968 83.5434 76.6301 83.57 76.5434 83.57H76.1934L77.8934 79.76L73.6734 70.14H74.0734C74.1468 70.14 74.2034 70.16 74.2434 70.2C74.2901 70.24 74.3201 70.28 74.3334 70.32L78.0134 78.76C78.0801 78.9067 78.1301 79.06 78.1634 79.22C78.2101 79.08 78.2668 78.9267 78.3334 78.76L81.9934 70.32C82.0201 70.2667 82.0534 70.2234 82.0934 70.19C82.1401 70.1567 82.1901 70.14 82.2434 70.14H82.6134Z" fill="black"/>
<path d="M85.3363 72.05C85.7963 71.4167 86.3429 70.9134 86.9762 70.54C87.6162 70.1667 88.3129 69.98 89.0663 69.98C89.6129 69.98 90.0896 70.0667 90.4963 70.24C90.9096 70.4067 91.2496 70.65 91.5163 70.97C91.7896 71.2834 91.9929 71.67 92.1263 72.13C92.2663 72.59 92.3363 73.11 92.3363 73.69V80H91.8063V73.69C91.8063 73.1767 91.7496 72.7167 91.6363 72.31C91.5229 71.9034 91.3462 71.56 91.1062 71.28C90.8729 70.9934 90.5796 70.7767 90.2262 70.63C89.8729 70.4767 89.4562 70.4 88.9762 70.4C88.2562 70.4 87.5896 70.59 86.9762 70.97C86.3696 71.3434 85.8296 71.8634 85.3562 72.53V80H84.8262V70.14H85.0762C85.2029 70.14 85.2696 70.2067 85.2763 70.34L85.3363 72.05Z" fill="black"/>
<path d="M96.3842 70.14V80H95.8642V70.14H96.3842ZM96.8142 66.58C96.8142 66.6734 96.7942 66.76 96.7542 66.84C96.7142 66.92 96.6609 66.9934 96.5942 67.06C96.5342 67.12 96.4609 67.17 96.3742 67.21C96.2942 67.2434 96.2109 67.26 96.1242 67.26C95.9376 67.26 95.7742 67.1934 95.6342 67.06C95.5009 66.92 95.4342 66.76 95.4342 66.58C95.4342 66.3934 95.5009 66.2334 95.6342 66.1C95.7742 65.96 95.9376 65.89 96.1242 65.89C96.2109 65.89 96.2942 65.91 96.3742 65.95C96.4609 65.9834 96.5342 66.0334 96.5942 66.1C96.6609 66.16 96.7142 66.2334 96.7542 66.32C96.7942 66.4 96.8142 66.4867 96.8142 66.58Z" fill="black"/>
<path d="M100.652 65.54V80H100.132V65.54H100.652Z" fill="black"/>
<path d="M110.375 72.78C110.522 72.3334 110.695 71.9367 110.895 71.59C111.095 71.2434 111.325 70.95 111.585 70.71C111.852 70.47 112.152 70.29 112.485 70.17C112.819 70.0434 113.195 69.98 113.615 69.98C113.809 69.98 114.005 69.9967 114.205 70.03C114.412 70.0567 114.595 70.1167 114.755 70.21L114.695 70.52C114.669 70.5934 114.622 70.63 114.555 70.63C114.482 70.63 114.369 70.6067 114.215 70.56C114.069 70.5067 113.849 70.48 113.555 70.48C113.142 70.48 112.772 70.5467 112.445 70.68C112.125 70.8067 111.839 70.9967 111.585 71.25C111.339 71.5034 111.119 71.82 110.925 72.2C110.732 72.58 110.555 73.0234 110.395 73.53V80H109.865V70.14H110.105C110.239 70.14 110.309 70.2134 110.315 70.36L110.375 72.78Z" fill="black"/>
<path d="M123.283 74.12C123.283 73.5267 123.197 73 123.023 72.54C122.857 72.0734 122.623 71.68 122.323 71.36C122.03 71.04 121.68 70.7967 121.273 70.63C120.867 70.4634 120.427 70.38 119.953 70.38C119.393 70.38 118.89 70.47 118.443 70.65C118.003 70.8234 117.623 71.0734 117.303 71.4C116.983 71.7267 116.723 72.12 116.523 72.58C116.33 73.04 116.203 73.5534 116.143 74.12H123.283ZM123.503 78.79C123.37 78.9567 123.183 79.12 122.943 79.28C122.703 79.44 122.427 79.5834 122.113 79.71C121.807 79.83 121.47 79.9267 121.103 80C120.743 80.08 120.373 80.12 119.993 80.12C119.32 80.12 118.71 80.0034 118.163 79.77C117.623 79.53 117.16 79.1867 116.773 78.74C116.393 78.2934 116.1 77.7467 115.893 77.1C115.687 76.4467 115.583 75.7034 115.583 74.87C115.583 74.15 115.68 73.4934 115.873 72.9C116.073 72.3 116.36 71.7834 116.733 71.35C117.107 70.9167 117.563 70.58 118.103 70.34C118.643 70.1 119.257 69.98 119.943 69.98C120.477 69.98 120.973 70.0734 121.433 70.26C121.9 70.4467 122.307 70.7234 122.653 71.09C123 71.45 123.27 71.8967 123.463 72.43C123.663 72.9634 123.763 73.5734 123.763 74.26C123.763 74.4 123.703 74.47 123.583 74.47H116.113C116.107 74.5367 116.103 74.6034 116.103 74.67C116.103 74.73 116.103 74.7967 116.103 74.87C116.103 75.6567 116.197 76.35 116.383 76.95C116.57 77.55 116.833 78.0534 117.173 78.46C117.513 78.8667 117.923 79.1767 118.403 79.39C118.89 79.5967 119.43 79.7 120.023 79.7C120.55 79.7 121.007 79.6434 121.393 79.53C121.78 79.41 122.103 79.28 122.363 79.14C122.623 79 122.823 78.8734 122.963 78.76C123.11 78.64 123.203 78.58 123.243 78.58C123.297 78.58 123.34 78.6 123.373 78.64L123.503 78.79Z" fill="black"/>
<path d="M133.055 71.22C133.035 71.24 133.015 71.26 132.995 71.28C132.975 71.2934 132.948 71.3 132.915 71.3C132.862 71.3 132.778 71.2534 132.665 71.16C132.552 71.0667 132.395 70.9634 132.195 70.85C131.995 70.7367 131.742 70.6334 131.435 70.54C131.128 70.4467 130.758 70.4 130.325 70.4C129.712 70.4 129.165 70.51 128.685 70.73C128.212 70.9434 127.808 71.2534 127.475 71.66C127.148 72.0667 126.898 72.5567 126.725 73.13C126.552 73.7034 126.465 74.35 126.465 75.07C126.465 75.81 126.552 76.47 126.725 77.05C126.905 77.6234 127.155 78.1067 127.475 78.5C127.802 78.8934 128.192 79.1934 128.645 79.4C129.105 79.6067 129.615 79.71 130.175 79.71C130.682 79.71 131.105 79.6534 131.445 79.54C131.792 79.42 132.078 79.29 132.305 79.15C132.532 79.0034 132.705 78.8734 132.825 78.76C132.945 78.64 133.032 78.58 133.085 78.58C133.138 78.58 133.182 78.6 133.215 78.64L133.335 78.79C133.215 78.9567 133.048 79.12 132.835 79.28C132.628 79.44 132.385 79.5834 132.105 79.71C131.832 79.83 131.525 79.9267 131.185 80C130.852 80.08 130.495 80.12 130.115 80.12C129.482 80.12 128.908 80.0067 128.395 79.78C127.882 79.5534 127.442 79.2234 127.075 78.79C126.715 78.3567 126.435 77.8267 126.235 77.2C126.035 76.5734 125.935 75.8634 125.935 75.07C125.935 74.31 126.032 73.6167 126.225 72.99C126.425 72.3634 126.712 71.83 127.085 71.39C127.458 70.9434 127.915 70.5967 128.455 70.35C128.995 70.1034 129.612 69.98 130.305 69.98C130.918 69.98 131.465 70.08 131.945 70.28C132.425 70.4734 132.838 70.73 133.185 71.05L133.055 71.22Z" fill="black"/>
<path d="M139.495 69.98C140.195 69.98 140.815 70.1034 141.355 70.35C141.901 70.59 142.361 70.9334 142.735 71.38C143.108 71.82 143.391 72.3534 143.585 72.98C143.778 73.6067 143.875 74.3034 143.875 75.07C143.875 75.8367 143.778 76.5334 143.585 77.16C143.391 77.78 143.108 78.31 142.735 78.75C142.361 79.19 141.901 79.53 141.355 79.77C140.815 80.0034 140.195 80.12 139.495 80.12C138.795 80.12 138.171 80.0034 137.625 79.77C137.085 79.53 136.628 79.19 136.255 78.75C135.881 78.31 135.598 77.78 135.405 77.16C135.211 76.5334 135.115 75.8367 135.115 75.07C135.115 74.3034 135.211 73.6067 135.405 72.98C135.598 72.3534 135.881 71.82 136.255 71.38C136.628 70.9334 137.085 70.59 137.625 70.35C138.171 70.1034 138.795 69.98 139.495 69.98ZM139.495 79.7C140.135 79.7 140.695 79.59 141.175 79.37C141.655 79.15 142.055 78.8367 142.375 78.43C142.701 78.0234 142.945 77.5367 143.105 76.97C143.265 76.4034 143.345 75.77 143.345 75.07C143.345 74.37 143.265 73.7334 143.105 73.16C142.945 72.5867 142.701 72.0967 142.375 71.69C142.055 71.2767 141.655 70.96 141.175 70.74C140.695 70.5134 140.135 70.4 139.495 70.4C138.855 70.4 138.295 70.5134 137.815 70.74C137.335 70.96 136.931 71.2767 136.605 71.69C136.285 72.0967 136.045 72.5867 135.885 73.16C135.725 73.7334 135.645 74.37 135.645 75.07C135.645 75.77 135.725 76.4034 135.885 76.97C136.045 77.5367 136.285 78.0234 136.605 78.43C136.931 78.8367 137.335 79.15 137.815 79.37C138.295 79.59 138.855 79.7 139.495 79.7Z" fill="black"/>
<path d="M147.309 72.78C147.456 72.3334 147.629 71.9367 147.829 71.59C148.029 71.2434 148.259 70.95 148.519 70.71C148.786 70.47 149.086 70.29 149.419 70.17C149.752 70.0434 150.129 69.98 150.549 69.98C150.742 69.98 150.939 69.9967 151.139 70.03C151.346 70.0567 151.529 70.1167 151.689 70.21L151.629 70.52C151.602 70.5934 151.556 70.63 151.489 70.63C151.416 70.63 151.302 70.6067 151.149 70.56C151.002 70.5067 150.782 70.48 150.489 70.48C150.076 70.48 149.706 70.5467 149.379 70.68C149.059 70.8067 148.772 70.9967 148.519 71.25C148.272 71.5034 148.052 71.82 147.859 72.2C147.666 72.58 147.489 73.0234 147.329 73.53V80H146.799V70.14H147.039C147.172 70.14 147.242 70.2134 147.249 70.36L147.309 72.78Z" fill="black"/>
<path d="M160.007 72.13C159.594 71.4967 159.137 71.05 158.637 70.79C158.137 70.5234 157.564 70.39 156.917 70.39C156.27 70.39 155.707 70.51 155.227 70.75C154.747 70.9834 154.347 71.31 154.027 71.73C153.707 72.15 153.467 72.6467 153.307 73.22C153.147 73.7934 153.067 74.4167 153.067 75.09C153.067 76.6567 153.36 77.8167 153.947 78.57C154.54 79.3234 155.404 79.7 156.537 79.7C157.23 79.7 157.87 79.51 158.457 79.13C159.05 78.75 159.567 78.2234 160.007 77.55V72.13ZM160.537 65.54V80H160.297C160.164 80 160.094 79.9334 160.087 79.8L160.027 78.04C159.587 78.6867 159.06 79.1967 158.447 79.57C157.84 79.9367 157.167 80.12 156.427 80.12C155.174 80.12 154.21 79.7067 153.537 78.88C152.864 78.0534 152.527 76.79 152.527 75.09C152.527 74.37 152.617 73.7 152.797 73.08C152.984 72.46 153.257 71.92 153.617 71.46C153.984 71 154.434 70.64 154.967 70.38C155.507 70.1134 156.13 69.98 156.837 69.98C157.544 69.98 158.154 70.1167 158.667 70.39C159.187 70.6567 159.634 71.06 160.007 71.6V65.54H160.537Z" fill="black"/>
<path d="M169.305 71.15C169.271 71.21 169.221 71.24 169.155 71.24C169.095 71.24 169.008 71.1967 168.895 71.11C168.788 71.0167 168.638 70.92 168.445 70.82C168.251 70.7134 168.008 70.6167 167.715 70.53C167.428 70.4367 167.071 70.39 166.645 70.39C166.251 70.39 165.891 70.45 165.565 70.57C165.245 70.6834 164.968 70.8367 164.735 71.03C164.501 71.2234 164.321 71.45 164.195 71.71C164.068 71.97 164.005 72.24 164.005 72.52C164.005 72.8534 164.085 73.1334 164.245 73.36C164.411 73.5867 164.628 73.78 164.895 73.94C165.161 74.0934 165.465 74.2267 165.805 74.34C166.145 74.4467 166.491 74.5567 166.845 74.67C167.198 74.7767 167.545 74.8934 167.885 75.02C168.225 75.1467 168.528 75.3034 168.795 75.49C169.061 75.6767 169.275 75.9067 169.435 76.18C169.601 76.4534 169.685 76.79 169.685 77.19C169.685 77.6034 169.611 77.99 169.465 78.35C169.318 78.71 169.101 79.0267 168.815 79.3C168.535 79.5667 168.188 79.7767 167.775 79.93C167.368 80.0834 166.901 80.16 166.375 80.16C166.021 80.16 165.701 80.13 165.415 80.07C165.128 80.0167 164.861 79.94 164.615 79.84C164.368 79.7334 164.138 79.6067 163.925 79.46C163.711 79.3134 163.505 79.15 163.305 78.97L163.435 78.8C163.461 78.7667 163.485 78.7434 163.505 78.73C163.531 78.71 163.571 78.7 163.625 78.7C163.691 78.7 163.785 78.7567 163.905 78.87C164.031 78.9767 164.198 79.0967 164.405 79.23C164.618 79.3634 164.885 79.4867 165.205 79.6C165.525 79.7067 165.918 79.76 166.385 79.76C166.845 79.76 167.248 79.6967 167.595 79.57C167.948 79.4367 168.241 79.2567 168.475 79.03C168.715 78.8034 168.895 78.54 169.015 78.24C169.135 77.9334 169.195 77.61 169.195 77.27C169.195 76.91 169.111 76.61 168.945 76.37C168.785 76.13 168.571 75.93 168.305 75.77C168.038 75.6034 167.735 75.4634 167.395 75.35C167.055 75.2367 166.708 75.1267 166.355 75.02C166.001 74.9134 165.655 74.8 165.315 74.68C164.975 74.5534 164.671 74.4 164.405 74.22C164.138 74.0334 163.921 73.8067 163.755 73.54C163.595 73.2734 163.515 72.94 163.515 72.54C163.515 72.2067 163.588 71.8867 163.735 71.58C163.888 71.2667 164.101 70.9934 164.375 70.76C164.648 70.52 164.975 70.33 165.355 70.19C165.741 70.05 166.171 69.98 166.645 69.98C167.218 69.98 167.725 70.06 168.165 70.22C168.605 70.38 169.021 70.6334 169.415 70.98L169.305 71.15Z" fill="black"/>
</svg>
