<svg width="521" height="456" viewBox="0 0 521 456" fill="none" xmlns="http://www.w3.org/2000/svg">
<path d="M520.246 162.749H431.904L339.094 8.06298C334.49 0.379036 324.503 -2.12974 316.788 2.49048C309.087 7.1107 306.595 17.0965 311.215 24.7969L393.986 162.749H126.261L209.032 24.7958C213.652 17.0955 211.16 7.1096 203.459 2.48938C195.727 -2.13084 185.773 0.377942 181.153 8.06189L88.3424 162.748H0V195.263H35.2859L76.5888 415.584C80.9069 438.653 101.07 455.387 124.537 455.387H395.71C419.176 455.387 439.339 438.653 443.642 415.6L484.959 195.263H520.247C520.246 195.263 520.246 162.749 520.246 162.749ZM411.681 409.615C410.253 417.299 403.536 422.872 395.709 422.872H124.537C116.709 422.872 109.994 417.3 108.549 409.6L68.3576 195.263H451.889L411.681 409.615Z" fill="black"/>
</svg>
