<svg width="112" height="114" viewBox="0 0 112 114" fill="none" xmlns="http://www.w3.org/2000/svg">
<ellipse cx="56.4259" cy="56.7581" rx="55.5626" ry="56.7581" fill="black"/>
<ellipse cx="56.4259" cy="56.758" rx="54.627" ry="55.8225" fill="#0A0A0A"/>
<ellipse cx="56.4265" cy="56.7582" rx="54.3152" ry="55.5106" fill="#0F0F0F"/>
<ellipse cx="56.4271" cy="56.7578" rx="53.0678" ry="54.2632" fill="#0E0E0E"/>
<ellipse cx="56.4265" cy="56.7583" rx="44.5436" ry="45.5312" fill="#0F0F0F"/>
<ellipse cx="56.4264" cy="56.7579" rx="30.8219" ry="31.4976" fill="#0C0C0C"/>
<ellipse cx="56.4267" cy="56.7581" rx="37.163" ry="37.9427" fill="black"/>
<ellipse cx="56.4267" cy="56.758" rx="41.1132" ry="41.9968" fill="black"/>
<ellipse cx="56.427" cy="56.7581" rx="16.7883" ry="17.1522" fill="#FDDA21"/>
<ellipse rx="2.44288" ry="2.54684" transform="matrix(1 0 0 -1 56.4263 56.8101)" fill="#202020"/>
<circle r="2.333" transform="matrix(1 0 0 -1 56.7695 56.7695)" fill="white"/>
<path d="M81.0114 5.97726L88.6 10.2913L95.6168 16.4245L101.646 23.5972L105.856 30.9778L73.1631 55.0429L72.0716 50.365C67.7576 43.5041 66.2502 40.9573 56.3228 39.5539L81.0114 5.97726Z" fill="#ECE7E7" fill-opacity="0.2"/>
<path d="M99.9307 21.6221L102.114 24.4808L103.621 26.9236L105.076 29.3146L105.856 30.9778L73.1628 54.9908L72.6431 52.392C72.1233 50.9367 72.0194 49.9491 70.5121 47.4543L99.9307 21.6221Z" fill="#ECE7E7" fill-opacity="0.1"/>
<path d="M33.699 108.614L26.7001 104.726L18.4049 99.0226L11.985 91.9589L7.75077 84.536L40.6314 60.3328L41.7292 65.0375C46.068 71.9378 51.6971 74.482 59.3376 73.7543L33.699 108.614Z" fill="#ECE7E7" fill-opacity="0.1"/>
<path d="M13.6279 94.4653L11.4324 91.5902L9.91643 89.1333L8.4528 86.7287L3.15167 75.5737L39.8989 59.9288L40.3147 61.696L40.9384 63.5152C41.6141 64.9705 42.1858 65.6462 43.7451 68.0371L13.6279 94.4653Z" fill="#ECE7E7" fill-opacity="0.1"/>
<path d="M103.309 87.3201L99.6189 92.9335L95.2009 97.7153L90.2112 101.925L85.2838 105.244L62.4039 72.8707L65.3666 71.3114C70.4602 67.725 72.1755 63.5669 73.0071 59.7207L103.309 87.3201Z" fill="#ECE7E7" fill-opacity="0.05"/>
<path d="M25.3964 9.66774L19.9909 13.566L15.4689 18.3478L11.5187 23.0776L8.71208 27.6515L40.7113 50.5755L42.2316 47.5878C45.7757 42.464 50.0002 40.7808 53.9286 39.9908L25.3964 9.66774Z" fill="#ECE7E7" fill-opacity="0.04"/>
</svg>
